# xmcd
#
# Track frame offsets:
#	150
#	13054
#	24866
#	37017
#	49161
#	60382
#	79888
#	89714
#	102091
#	115974
#	131948
#	143756
#	157896
#	172263
#	185792
#	197914
#	213596
#	226923
#	237393
#	247180
#	262343
#	277570
#
# Disc length: 3871 seconds
#
# Revision: 0
# Processed by: cddbd v1.5.2PL0 Copyright (c) Steve Scherf et al.
# Submitted via: EasyCDDAExtractor 16.0.1.1
#
DISCID=460f1d16
DTITLE=Stompin' Tom - Sound Tracks Canada
DYEAR=1900
DGENRE=Country
TTITLE0=A Real Canadain Girl
TTITLE1=My Home Cradled Out In The Waves
TTITLE2=Praire Moon
TTITLE3=She Called From Montreal
TTITLE4=The Flyin' C.P.R.
TTITLE5=Suzanne De Lafayette
TTITLE6=We're Trading Hearts
TTITLE7=Shanty Town Sharon
TTITLE8=Sable Island
TTITLE9="Wop" May
TTITLE10=Canada Day, Up Canada Way
TTITLE11=The Bug Song
TTITLE12=Football Song
TTITLE13=Alberta Rose
TTITLE14=Manitoba
TTITLE15=Road To Thunder Bay
TTITLE16=Fire In The Mine
TTITLE17=May, The Millwright's Daughter
TTITLE18=Algoma Central No. 69
TTITLE19=Maple Leaf Waltz
TTITLE20=Where The Chinooks Blow
TTITLE21=My Home's In Newfoundland
EXTD=
EXTT0=
EXTT1=
EXTT2=
EXTT3=
EXTT4=
EXTT5=
EXTT6=
EXTT7=
EXTT8=
EXTT9=
EXTT10=
EXTT11=
EXTT12=
EXTT13=
EXTT14=
EXTT15=
EXTT16=
EXTT17=
EXTT18=
EXTT19=
EXTT20=
EXTT21=
PLAYORDER=
